<svg width="100" height="171" viewBox="0 0 100 171" fill="none" xmlns="http://www.w3.org/2000/svg">
<path fill-rule="evenodd" clip-rule="evenodd" d="M42.4629 157.576L42.5067 181.684C42.5145 185.909 45.9587 189.329 50.1997 189.321C54.4406 189.313 57.8723 185.881 57.8647 181.656L57.8207 157.548L91.6404 121.617C96.9929 115.93 99.9654 108.422 99.9515 100.626L99.8262 31.7506C99.776 4.28436 77.3888 -17.9405 49.8227 -17.8904C22.2566 -17.8404 -0.0495316 4.46581 0.000201139 31.9321L0.125519 100.808C0.139863 108.604 3.13971 116.101 8.51292 121.768L42.4629 157.576ZM42.4224 135.25L19.677 111.26C16.9903 108.426 15.4905 104.678 15.4832 100.78L15.3582 31.9039C15.3236 12.889 30.7664 -2.55379 49.8506 -2.58847C68.9348 -2.62318 84.4337 12.7634 84.4683 31.7783L84.5103 54.8777C84.1442 55.1332 83.7956 55.4238 83.4691 55.7504L57.6825 81.537L57.6002 36.2864C57.5925 32.0606 54.1484 28.6414 49.9074 28.6494C45.6665 28.6569 42.2345 32.0888 42.2425 36.3143L42.4224 135.25ZM57.7218 103.177L84.5493 76.3499L84.5935 100.654C84.6006 104.552 83.1145 108.306 80.4381 111.149L57.7801 135.222L57.7218 103.177Z" fill="#4B5765"/>
</svg>
