<svg width="20" height="21" viewBox="0 0 20 21" fill="none" xmlns="http://www.w3.org/2000/svg">
<path fill-rule="evenodd" clip-rule="evenodd" d="M13.9621 19.972H5.61428C2.54792 19.972 0.195516 18.8645 0.863708 14.4068L1.64174 8.36561C2.05364 6.14136 3.4724 5.2901 4.71726 5.2901H14.8957C16.1589 5.2901 17.4953 6.20543 17.9713 8.36561L18.7493 14.4068C19.3168 18.361 17.0285 19.972 13.9621 19.972Z" stroke="#1A162E" stroke-width="1.5" stroke-linecap="round" stroke-linejoin="round"/>
<path d="M14.099 5.07041C14.099 2.68433 12.1647 0.750039 9.77861 0.750039V0.750039C8.62961 0.74517 7.526 1.1982 6.71181 2.00895C5.89762 2.81971 5.43993 3.92139 5.43994 5.07041H5.43994" stroke="#1A162E" stroke-width="1.5" stroke-linecap="round" stroke-linejoin="round"/>
<path d="M12.7447 9.57382H12.6989" stroke="#1A162E" stroke-width="1.5" stroke-linecap="round" stroke-linejoin="round"/>
<path d="M6.91365 9.57388H6.86789" stroke="#1A162E" stroke-width="1.5" stroke-linecap="round" stroke-linejoin="round"/>
</svg>
