<svg width="20" height="19" viewBox="0 0 20 19" fill="none" xmlns="http://www.w3.org/2000/svg">
<path fill-rule="evenodd" clip-rule="evenodd" d="M10.8563 1.42701L12.6837 5.07776C12.8628 5.43616 13.2085 5.68467 13.6094 5.74218L17.6974 6.33062C18.7074 6.47644 19.1094 7.70055 18.3784 8.40194L15.4223 11.2424C15.1317 11.5218 14.9995 11.9233 15.0682 12.3176L15.7659 16.3278C15.9377 17.3198 14.8818 18.0767 13.9791 17.6074L10.3253 15.7127C9.9671 15.5268 9.5381 15.5268 9.17886 15.7127L5.52508 17.6074C4.62231 18.0767 3.56647 17.3198 3.73932 16.3278L4.43592 12.3176C4.50464 11.9233 4.3724 11.5218 4.08189 11.2424L1.12576 8.40194C0.39479 7.70055 0.796717 6.47644 1.80674 6.33062L5.89473 5.74218C6.29561 5.68467 6.64235 5.43616 6.82145 5.07776L8.64782 1.42701C9.09973 0.524331 10.4044 0.524331 10.8563 1.42701Z" stroke="#FFB700" stroke-width="1.5" stroke-linecap="round" stroke-linejoin="round"/>
<path fill-rule="evenodd" clip-rule="evenodd" d="M10.3253 1.42701V5.07776V5.74218V6.33062V8.40194V11.2424V12.3176V16.3278V15.7127C9.9671 15.5268 9.5381 15.5268 9.17886 15.7127L5.52508 17.6074C4.62231 18.0767 3.56647 17.3198 3.73932 16.3278L4.43592 12.3176C4.50464 11.9233 4.3724 11.5218 4.08189 11.2424L1.12576 8.40194C0.39479 7.70054 0.796717 6.47644 1.80674 6.33062L5.89473 5.74218C6.29561 5.68467 6.64235 5.43616 6.82145 5.07776L8.64782 1.42701C9.09973 0.524331 9.87338 0.524331 10.3253 1.42701Z" fill="#FFB700"/>
</svg>
